<?xml version="1.0" standalone="no"?>
<!DOCTYPE svg PUBLIC "-//W3C//DTD SVG 20010904//EN"
 "http://www.w3.org/TR/2001/REC-SVG-20010904/DTD/svg10.dtd">
<svg version="1.0" xmlns="http://www.w3.org/2000/svg"
 width="432.000000pt" height="216.000000pt" viewBox="0 0 432.000000 216.000000"
 preserveAspectRatio="xMidYMid meet">
<metadata>
Created by potrace 1.16, written by Peter Selinger 2001-2019
</metadata>
<g transform="translate(0.000000,216.000000) scale(0.100000,-0.100000)"
fill="#000000" stroke="none">
<path d="M2290 1773 c0 -5 -68 -8 -150 -8 -83 0 -150 -4 -150 -8 0 -5 -9 -5
-20 -2 -11 4 -20 2 -20 -4 0 -6 -7 -8 -15 -5 -8 4 -15 1 -15 -6 0 -6 -4 -8
-10 -5 -5 3 -10 2 -10 -4 0 -6 -7 -8 -15 -5 -8 4 -15 1 -15 -6 0 -6 -4 -8 -10
-5 -5 3 -10 1 -10 -5 0 -6 -4 -8 -10 -5 -5 3 -10 1 -10 -5 0 -6 -4 -8 -10 -5
-5 3 -10 1 -10 -5 0 -6 -4 -9 -9 -5 -6 3 -14 -3 -20 -12 -6 -10 -11 -14 -11
-9 0 6 -7 1 -16 -10 -8 -10 -12 -12 -8 -4 14 26 -157 -153 -188 -199 -20 -28
-33 -39 -38 -31 -5 8 -9 5 -13 -9 -3 -14 -1 -19 6 -15 7 3 4 -1 -5 -9 -10 -8
-15 -17 -11 -20 3 -4 1 -7 -6 -7 -7 0 -9 -4 -6 -10 3 -5 2 -10 -4 -10 -6 0 -7
-7 -4 -17 5 -12 3 -14 -7 -8 -10 6 -12 4 -7 -8 3 -10 2 -17 -3 -17 -5 0 -7 -7
-4 -15 4 -8 1 -15 -5 -15 -6 0 -8 -7 -5 -15 4 -8 1 -15 -6 -15 -7 0 -9 -8 -5
-21 5 -16 4 -19 -5 -14 -9 6 -10 -1 -5 -25 6 -25 4 -31 -6 -25 -9 6 -11 3 -6
-8 6 -16 -45 -17 -703 -17 l-710 0 0 -560 0 -560 2160 0 2160 0 0 560 0 560
-697 2 -698 3 3 33 c1 18 -3 32 -9 32 -6 0 -8 8 -4 20 4 11 2 20 -4 20 -6 0
-8 7 -5 15 4 8 1 15 -5 15 -6 0 -8 7 -5 15 4 8 1 15 -6 15 -6 0 -8 5 -5 10 3
6 1 10 -5 10 -6 0 -8 4 -5 10 8 13 -22 70 -37 70 -6 0 -9 2 -6 5 8 8 -198 238
-217 242 -4 1 -11 7 -16 14 -4 7 -16 14 -25 15 -10 2 -24 10 -30 18 -6 9 -14
13 -17 9 -4 -3 -7 -1 -7 6 0 7 -4 9 -10 6 -5 -3 -10 -1 -10 5 0 6 -4 8 -10 5
-5 -3 -10 -1 -10 5 0 7 -7 10 -15 6 -8 -3 -15 -1 -15 4 0 5 -7 6 -17 3 -11 -5
-14 -3 -8 6 6 10 2 11 -15 6 -16 -5 -20 -4 -15 5 5 9 2 10 -14 5 -13 -4 -21
-2 -21 5 0 8 -9 10 -26 6 -17 -5 -23 -3 -19 4 3 5 -1 10 -9 10 -9 0 -16 -3
-16 -7z m99 -99 c202 -67 371 -235 441 -439 109 -317 -42 -682 -342 -829 -133
-66 -197 -79 -343 -74 -103 4 -132 9 -203 36 -555 207 -621 943 -112 1249 157
95 379 117 559 57z m-958 -775 c5 -34 18 -88 29 -118 10 -31 17 -57 16 -59 -5
-5 -260 60 -269 68 -5 4 39 47 98 94 59 48 110 85 112 83 2 -3 8 -33 14 -68z
m1622 -24 c70 -56 94 -81 85 -86 -19 -11 -260 -71 -264 -66 -2 2 5 29 15 60
11 31 23 78 26 104 10 72 15 85 28 75 7 -5 56 -44 110 -87z m-1275 -498 c38
-24 88 -49 111 -57 22 -7 41 -16 41 -19 -1 -6 -185 -146 -216 -164 -12 -7 -14
18 -14 138 0 80 2 145 4 145 2 0 35 -19 74 -43z m852 -108 l0 -141 -32 24
c-18 13 -68 51 -111 83 -43 32 -76 60 -74 62 2 2 40 21 83 42 44 21 88 46 99
55 11 8 23 16 28 16 4 0 7 -64 7 -141z"/>
</g>
</svg>
